SourceCode_Regular-Italic.ufo
<glyph name="D" format="1">
	<unicode hex="0044"/>
	<advance width="600"/>
	<outline>
		<contour>
			<point x="22" y="0" type="line"/>
			<point x="199" y="0" type="line" smooth="yes"/>
			<point x="424" y="0"/>
			<point x="557" y="162"/>
			<point x="557" y="400" type="curve" smooth="yes"/>
			<point x="557" y="563"/>
			<point x="462" y="656"/>
			<point x="284" y="656" type="curve" smooth="yes"/>
			<point x="153" y="656" type="line"/>
		</contour>
		<contour>
			<point x="112" y="64" type="line"/>
			<point x="218" y="593" type="line"/>
			<point x="281" y="593" type="line" smooth="yes"/>
			<point x="409" y="593"/>
			<point x="477" y="521"/>
			<point x="477" y="395" type="curve" smooth="yes"/>
			<point x="477" y="193"/>
			<point x="372" y="64"/>
			<point x="199" y="64" type="curve" smooth="yes"/>
		</contour>
	</outline>
</glyph>
<glyph name="T" format="2">
	<unicode hex="0054"/>
	<advance width="600"/>
	<outline>
		<contour>
			<point x="198" y="0" type="line"/>
			<point x="276" y="0" type="line"/>
			<point x="393" y="589" type="line"/>
			<point x="611" y="589" type="line"/>
			<point x="625" y="656" type="line"/>
			<point x="111" y="656" type="line"/>
			<point x="98" y="589" type="line"/>
			<point x="316" y="589" type="line"/>
		</contour>
	</outline>
</glyph>
<glyph name="Tbar" format="1">
	<unicode hex="0166"/>
	<advance width="600"/>
	<outline>
		<contour>
			<point x="128" y="326" type="line"/>
			<point x="474" y="326" type="line"/>
			<point x="486" y="382" type="line"/>
			<point x="214" y="382" type="line"/>
			<point x="138" y="376" type="line"/>
		</contour>
		<component base="T"/>
		<contour>
			<point name="aboveUC" x="373" y="676" type="move"/>
		</contour>
		<contour>
			<point name="belowLC" x="235" y="-20" type="move"/>
		</contour>
	</outline>
</glyph>
<glyph name="tbar" format="1">
	<unicode hex="0167"/>
	<advance width="600"/>
	<outline>
		<contour>
			<point x="38" y="224" type="line"/>
			<point x="478" y="224" type="line"/>
			<point x="490" y="284" type="line"/>
			<point x="190" y="284" type="line"/>
			<point x="50" y="280" type="line"/>
		</contour>
		<component base="t"/>
	</outline>
</glyph>
<glyph name="bstroke" format="2">
	<unicode hex="0180"/>
	<advance width="600"/>
	<outline>
		<contour>
			<point x="270" y="-12" type="curve" smooth="yes"/>
			<point x="419" y="-12"/>
			<point x="537" y="121"/>
			<point x="537" y="289" type="curve" smooth="yes"/>
			<point x="537" y="411"/>
			<point x="472" y="478"/>
			<point x="369" y="478" type="curve" smooth="yes"/>
			<point x="304" y="478"/>
			<point x="239" y="441"/>
			<point x="190" y="395" type="curve"/>
			<point x="187" y="395" type="line"/>
			<point x="212" y="502" type="line"/>
			<point x="255" y="712" type="line"/>
			<point x="178" y="712" type="line"/>
			<point x="36" y="0" type="line"/>
			<point x="100" y="0" type="line"/>
			<point x="118" y="61" type="line"/>
			<point x="121" y="61" type="line"/>
			<point x="151" y="18"/>
			<point x="206" y="-12"/>
		</contour>
		<contour>
			<point x="262" y="52" type="curve" smooth="yes"/>
			<point x="215" y="52"/>
			<point x="171" y="71"/>
			<point x="137" y="122" type="curve"/>
			<point x="177" y="320" type="line"/>
			<point x="228" y="379"/>
			<point x="293" y="414"/>
			<point x="344" y="414" type="curve" smooth="yes"/>
			<point x="413" y="414"/>
			<point x="458" y="369"/>
			<point x="458" y="278" type="curve" smooth="yes"/>
			<point x="458" y="156"/>
			<point x="371" y="52"/>
		</contour>
		<contour>
			<point x="76" y="566" type="line"/>
			<point x="442" y="566" type="line"/>
			<point x="452" y="626" type="line"/>
			<point x="164" y="626" type="line"/>
			<point x="85" y="620" type="line"/>
		</contour>
	</outline>
</glyph>
<glyph name="Dhook" format="2">
	<unicode hex="018A"/>
	<advance width="600"/>
	<outline>
		<contour>
			<point x="143" y="0" type="line"/>
			<point x="212" y="0" type="line" smooth="yes"/>
			<point x="445" y="0"/>
			<point x="585" y="173"/>
			<point x="585" y="415" type="curve" smooth="yes"/>
			<point x="585" y="576"/>
			<point x="494" y="669"/>
			<point x="328" y="669" type="curve" smooth="yes"/>
			<point x="142" y="669"/>
			<point x="38" y="532"/>
			<point x="38" y="399" type="curve" smooth="yes"/>
			<point x="38" y="333"/>
			<point x="67" y="288"/>
			<point x="115" y="264" type="curve"/>
			<point x="156" y="316" type="line"/>
			<point x="121" y="337"/>
			<point x="104" y="367"/>
			<point x="104" y="409" type="curve" smooth="yes"/>
			<point x="104" y="505"/>
			<point x="178" y="605"/>
			<point x="299" y="605" type="curve" smooth="yes"/>
			<point x="329" y="605" type="line" smooth="yes"/>
			<point x="450" y="605"/>
			<point x="505" y="532"/>
			<point x="505" y="410" type="curve" smooth="yes"/>
			<point x="505" y="204"/>
			<point x="392" y="64"/>
			<point x="240" y="64" type="curve" smooth="yes"/>
			<point x="232" y="64" type="line"/>
			<point x="343" y="622" type="line"/>
			<point x="267" y="622" type="line"/>
		</contour>
	</outline>
</glyph>
<glyph name="dotlessj" format="1">
	<unicode hex="0237"/>
	<advance width="600"/>
	<outline>
		<contour>
			<point x="122" y="-217" type="curve" smooth="yes"/>
			<point x="255" y="-217"/>
			<point x="317" y="-145"/>
			<point x="344" y="-15" type="curve" smooth="yes"/>
			<point x="444" y="486" type="line"/>
			<point x="145" y="486" type="line"/>
			<point x="131" y="424" type="line"/>
			<point x="355" y="424" type="line"/>
			<point x="267" y="-14" type="line" smooth="yes"/>
			<point x="249" y="-102"/>
			<point x="208" y="-154"/>
			<point x="121" y="-154" type="curve" smooth="yes"/>
			<point x="77" y="-154"/>
			<point x="44" y="-139"/>
			<point x="15" y="-118" type="curve"/>
			<point x="-18" y="-173" type="line"/>
			<point x="11" y="-194"/>
			<point x="61" y="-217"/>
		</contour>
	</outline>
</glyph>
<glyph name="ereversed" format="1">
	<unicode hex="0258"/>
	<advance width="600"/>
	<outline>
		<contour>
			<point x="241" y="-12" type="curve" smooth="yes"/>
			<point x="406" y="-12"/>
			<point x="528" y="102"/>
			<point x="528" y="293" type="curve" smooth="yes"/>
			<point x="528" y="424"/>
			<point x="447" y="499"/>
			<point x="331" y="499" type="curve" smooth="yes"/>
			<point x="170" y="499"/>
			<point x="74" y="368"/>
			<point x="74" y="259" type="curve" smooth="yes"/>
			<point x="74" y="245"/>
			<point x="75" y="235"/>
			<point x="77" y="224" type="curve"/>
			<point x="475" y="224" type="line"/>
			<point x="479" y="284" type="line"/>
			<point x="129" y="284" type="line"/>
			<point x="143" y="268" type="line"/>
			<point x="148" y="360"/>
			<point x="229" y="437"/>
			<point x="320" y="437" type="curve" smooth="yes"/>
			<point x="397" y="437"/>
			<point x="451" y="389"/>
			<point x="451" y="288" type="curve" smooth="yes"/>
			<point x="451" y="141"/>
			<point x="360" y="49"/>
			<point x="246" y="49" type="curve" smooth="yes"/>
			<point x="182" y="49"/>
			<point x="138" y="71"/>
			<point x="102" y="106" type="curve"/>
			<point x="60" y="59" type="line"/>
			<point x="96" y="19"/>
			<point x="162" y="-12"/>
		</contour>
		<contour>
			<point name="aboveLC" x="334" y="507" type="move"/>
		</contour>
		<contour>
			<point name="belowLC" x="256" y="-20" type="move"/>
		</contour>
	</outline>
</glyph>
<glyph name="dotlessjstroke" format="1">
	<unicode hex="025F"/>
	<advance width="600"/>
	<outline>
		<contour>
			<point x="122" y="212" type="line"/>
			<point x="546" y="212" type="line"/>
			<point x="558" y="272" type="line"/>
			<point x="326" y="272" type="line"/>
			<point x="132" y="266" type="line"/>
		</contour>
		<component base="dotlessj"/>
	</outline>
</glyph>
<glyph name="obar" format="1">
	<unicode hex="0275"/>
	<advance width="600"/>
	<outline>
		<contour>
			<point x="250" y="-12" type="curve" smooth="yes"/>
			<point x="400" y="-12"/>
			<point x="529" y="114"/>
			<point x="529" y="285" type="curve" smooth="yes"/>
			<point x="529" y="411"/>
			<point x="453" y="498"/>
			<point x="326" y="498" type="curve" smooth="yes"/>
			<point x="177" y="498"/>
			<point x="46" y="371"/>
			<point x="46" y="201" type="curve" smooth="yes"/>
			<point x="46" y="75"/>
			<point x="123" y="-12"/>
		</contour>
		<contour>
			<point x="256" y="49" type="curve" smooth="yes"/>
			<point x="169" y="49"/>
			<point x="120" y="109"/>
			<point x="120" y="206" type="curve" smooth="yes"/>
			<point x="120" y="334"/>
			<point x="213" y="437"/>
			<point x="320" y="437" type="curve" smooth="yes"/>
			<point x="406" y="437"/>
			<point x="455" y="377"/>
			<point x="455" y="280" type="curve" smooth="yes"/>
			<point x="455" y="151"/>
			<point x="363" y="49"/>
		</contour>
		<contour>
			<point x="104" y="224" type="line"/>
			<point x="465" y="224" type="line"/>
			<point x="476" y="284" type="line"/>
			<point x="115" y="284" type="line"/>
		</contour>
	</outline>
</glyph>
<glyph name="oesmall" format="1">
	<unicode hex="0276"/>
	<advance width="600"/>
	<outline>
		<contour>
			<point x="185" y="-12" type="curve" smooth="yes"/>
			<point x="218" y="-12"/>
			<point x="245" y="-8"/>
			<point x="274" y="0" type="curve"/>
			<point x="537" y="0" type="line"/>
			<point x="549" y="62" type="line"/>
			<point x="336" y="62" type="line"/>
			<point x="368" y="224" type="line"/>
			<point x="536" y="224" type="line"/>
			<point x="547" y="284" type="line"/>
			<point x="380" y="284" type="line"/>
			<point x="408" y="424" type="line"/>
			<point x="612" y="424" type="line"/>
			<point x="624" y="486" type="line"/>
			<point x="371" y="486" type="line"/>
			<point x="336" y="494"/>
			<point x="308" y="498"/>
			<point x="275" y="498" type="curve" smooth="yes"/>
			<point x="119" y="498"/>
			<point x="3" y="360"/>
			<point x="3" y="178" type="curve" smooth="yes"/>
			<point x="3" y="53"/>
			<point x="76" y="-12"/>
		</contour>
		<contour>
			<point x="197" y="52" type="curve" smooth="yes"/>
			<point x="126" y="52"/>
			<point x="80" y="95"/>
			<point x="80" y="185" type="curve" smooth="yes"/>
			<point x="80" y="319"/>
			<point x="163" y="434"/>
			<point x="273" y="434" type="curve" smooth="yes"/>
			<point x="294" y="434"/>
			<point x="315" y="429"/>
			<point x="333" y="424" type="curve"/>
			<point x="264" y="63" type="line"/>
			<point x="241" y="57"/>
			<point x="218" y="52"/>
		</contour>
		<contour>
			<point name="aboveLC" x="376" y="507" type="move"/>
		</contour>
		<contour>
			<point name="belowLC" x="303" y="-20" type="move"/>
		</contour>
	</outline>
</glyph>
<glyph name="philatin" format="2">
	<unicode hex="0278"/>
	<advance width="600"/>
	<outline>
		<contour>
			<point x="230" y="-9" type="curve"/>
			<point x="235" y="49" type="line"/>
			<point x="169" y="50"/>
			<point x="100" y="102"/>
			<point x="100" y="210" type="curve" smooth="yes"/>
			<point x="100" y="340"/>
			<point x="192" y="433"/>
			<point x="298" y="436" type="curve"/>
			<point x="313" y="495" type="line"/>
			<point x="160" y="493"/>
			<point x="22" y="385"/>
			<point x="22" y="201" type="curve" smooth="yes"/>
			<point x="22" y="61"/>
			<point x="131" y="-9"/>
		</contour>
		<contour>
			<point x="265" y="-9" type="line"/>
			<point x="419" y="-7"/>
			<point x="556" y="101"/>
			<point x="556" y="284" type="curve" smooth="yes"/>
			<point x="556" y="425"/>
			<point x="447" y="494"/>
			<point x="348" y="495" type="curve"/>
			<point x="343" y="436" type="line"/>
			<point x="410" y="436"/>
			<point x="478" y="383"/>
			<point x="478" y="276" type="curve" smooth="yes"/>
			<point x="478" y="146"/>
			<point x="386" y="52"/>
			<point x="280" y="49" type="curve"/>
		</contour>
		<contour>
			<point x="156" y="-205" type="line"/>
			<point x="236" y="-205" type="line"/>
			<point x="428" y="712" type="line"/>
			<point x="348" y="712" type="line"/>
		</contour>
	</outline>
</glyph>
<glyph name="esh" format="2">
	<unicode hex="0283"/>
	<advance width="600"/>
	<outline>
		<contour>
			<point x="104" y="-217" type="curve" smooth="yes"/>
			<point x="207" y="-217"/>
			<point x="257" y="-157"/>
			<point x="277" y="-55" type="curve" smooth="yes"/>
			<point x="398" y="563" type="line" smooth="yes"/>
			<point x="411" y="631"/>
			<point x="443" y="662"/>
			<point x="502" y="662" type="curve" smooth="yes"/>
			<point x="534" y="662"/>
			<point x="564" y="647"/>
			<point x="593" y="626" type="curve"/>
			<point x="630" y="675" type="line"/>
			<point x="597" y="702"/>
			<point x="549" y="724"/>
			<point x="499" y="724" type="curve" smooth="yes"/>
			<point x="395" y="724"/>
			<point x="340" y="664"/>
			<point x="320" y="564" type="curve" smooth="yes"/>
			<point x="199" y="-55" type="line"/>
			<point x="187" y="-125"/>
			<point x="159" y="-154"/>
			<point x="109" y="-154" type="curve" smooth="yes"/>
			<point x="71" y="-154"/>
			<point x="42" y="-142"/>
			<point x="15" y="-121" type="curve"/>
			<point x="-18" y="-173" type="line"/>
			<point x="8" y="-196"/>
			<point x="52" y="-217"/>
		</contour>
	</outline>
</glyph>
<glyph name="dotlessjstrokehook" format="2">
	<unicode hex="0284"/>
	<advance width="600"/>
	<outline>
		<contour>
			<point x="82" y="226" type="line"/>
			<point x="506" y="226" type="line"/>
			<point x="518" y="286" type="line"/>
			<point x="266" y="286" type="line"/>
			<point x="92" y="280" type="line"/>
		</contour>
		<component base="esh"/>
	</outline>
</glyph>
<glyph name="glottalstopstroke" format="1">
	<unicode hex="02A1"/>
	<advance width="600"/>
	<outline>
		<contour>
			<point x="173" y="0" type="line"/>
			<point x="250" y="0" type="line"/>
			<point x="301" y="250" type="line"/>
			<point x="488" y="250" type="line"/>
			<point x="502" y="312" type="line"/>
			<point x="348" y="312" type="line"/>
			<point x="478" y="379"/>
			<point x="547" y="455"/>
			<point x="547" y="564" type="curve" smooth="yes"/>
			<point x="547" y="667"/>
			<point x="459" y="724"/>
			<point x="353" y="724" type="curve" smooth="yes"/>
			<point x="254" y="724"/>
			<point x="191" y="689"/>
			<point x="134" y="643" type="curve"/>
			<point x="168" y="591" type="line"/>
			<point x="217" y="631"/>
			<point x="269" y="662"/>
			<point x="342" y="662" type="curve" smooth="yes"/>
			<point x="417" y="662"/>
			<point x="468" y="621"/>
			<point x="468" y="554" type="curve" smooth="yes"/>
			<point x="468" y="464"/>
			<point x="410" y="389"/>
			<point x="236" y="312" type="curve"/>
			<point x="92" y="306" type="line"/>
			<point x="80" y="250" type="line"/>
			<point x="223" y="250" type="line"/>
		</contour>
	</outline>
</glyph>
<glyph name="Eng.a" format="1">
	<advance width="600"/>
	<outline>
		<contour>
			<point x="306" y="-164" type="curve" smooth="yes"/>
			<point x="389" y="-164"/>
			<point x="432" y="-101"/>
			<point x="450" y="-13" type="curve" smooth="yes"/>
			<point x="584" y="656" type="line"/>
			<point x="510" y="656" type="line"/>
			<point x="440" y="301" type="line" smooth="yes"/>
			<point x="429" y="246"/>
			<point x="418" y="164"/>
			<point x="410" y="99" type="curve"/>
			<point x="406" y="99" type="line"/>
			<point x="369" y="234" type="line"/>
			<point x="235" y="656" type="line"/>
			<point x="156" y="656" type="line"/>
			<point x="25" y="0" type="line"/>
			<point x="99" y="0" type="line"/>
			<point x="168" y="351" type="line" smooth="yes"/>
			<point x="180" y="414"/>
			<point x="190" y="492"/>
			<point x="199" y="558" type="curve"/>
			<point x="203" y="558" type="line"/>
			<point x="240" y="422" type="line"/>
			<point x="378" y="-5" type="line"/>
			<point x="363" y="-75"/>
			<point x="338" y="-101"/>
			<point x="302" y="-101" type="curve" smooth="yes"/>
			<point x="281" y="-101"/>
			<point x="269" y="-96"/>
			<point x="257" y="-88" type="curve"/>
			<point x="231" y="-145" type="line"/>
			<point x="253" y="-157"/>
			<point x="275" y="-164"/>
		</contour>
	</outline>
</glyph>
<glyph name="dotlessi" format="1">
	<advance width="600"/>
	<outline>
		<contour>
			<point x="347" y="-12" type="curve" smooth="yes"/>
			<point x="400" y="-12"/>
			<point x="439" y="1"/>
			<point x="480" y="20" type="curve"/>
			<point x="462" y="78" type="line"/>
			<point x="427" y="62"/>
			<point x="399" y="52"/>
			<point x="369" y="52" type="curve" smooth="yes"/>
			<point x="325" y="52"/>
			<point x="294" y="73"/>
			<point x="294" y="124" type="curve" smooth="yes"/>
			<point x="294" y="134"/>
			<point x="296" y="144"/>
			<point x="298" y="156" type="curve" smooth="yes"/>
			<point x="371" y="486" type="line"/>
			<point x="117" y="486" type="line"/>
			<point x="104" y="424" type="line"/>
			<point x="282" y="424" type="line"/>
			<point x="224" y="163" type="line" smooth="yes"/>
			<point x="219" y="144"/>
			<point x="216" y="126"/>
			<point x="216" y="110" type="curve" smooth="yes"/>
			<point x="216" y="30"/>
			<point x="270" y="-12"/>
		</contour>
		<contour>
			<point name="ogonekLC" x="364" y="0" type="move"/>
		</contour>
		<contour>
			<point name="aboveLC" x="320" y="507" type="move"/>
		</contour>
		<contour>
			<point name="baseLC" x="351" y="0" type="move"/>
		</contour>
		<contour>
			<point name="belowLC" x="333" y="-20" type="move"/>
		</contour>
	</outline>
</glyph>
<glyph name="istroke.d" format="1">
	<advance width="600"/>
	<outline>
		<contour>
			<point x="84" y="224" type="line"/>
			<point x="474" y="224" type="line"/>
			<point x="486" y="284" type="line"/>
			<point x="254" y="284" type="line"/>
			<point x="94" y="280" type="line"/>
		</contour>
		<component base="dotlessi"/>
	</outline>
</glyph>
<glyph name="oe" format="1">
	<advance width="600"/>
	<outline>
		<contour>
			<point x="124" y="-12" type="curve" smooth="yes"/>
			<point x="189" y="-12"/>
			<point x="248" y="24"/>
			<point x="289" y="102" type="curve"/>
			<point x="278" y="111" type="line"/>
			<point x="284" y="30"/>
			<point x="338" y="-12"/>
			<point x="404" y="-12" type="curve" smooth="yes"/>
			<point x="458" y="-12"/>
			<point x="512" y="9"/>
			<point x="546" y="35" type="curve"/>
			<point x="522" y="86" type="line"/>
			<point x="494" y="66"/>
			<point x="458" y="49"/>
			<point x="417" y="49" type="curve" smooth="yes"/>
			<point x="359" y="49"/>
			<point x="326" y="86"/>
			<point x="326" y="164" type="curve" smooth="yes"/>
			<point x="326" y="298"/>
			<point x="393" y="437"/>
			<point x="473" y="437" type="curve" smooth="yes"/>
			<point x="522" y="437"/>
			<point x="536" y="396"/>
			<point x="536" y="342" type="curve" smooth="yes"/>
			<point x="536" y="319"/>
			<point x="532" y="293"/>
			<point x="526" y="271" type="curve"/>
			<point x="538" y="284" type="line"/>
			<point x="321" y="284" type="line"/>
			<point x="318" y="224" type="line"/>
			<point x="579" y="224" type="line"/>
			<point x="585" y="245"/>
			<point x="599" y="296"/>
			<point x="599" y="344" type="curve" smooth="yes"/>
			<point x="599" y="441"/>
			<point x="562" y="498"/>
			<point x="486" y="498" type="curve" smooth="yes"/>
			<point x="423" y="498"/>
			<point x="362" y="453"/>
			<point x="325" y="369" type="curve"/>
			<point x="333" y="366" type="line"/>
			<point x="325" y="450"/>
			<point x="287" y="498"/>
			<point x="219" y="498" type="curve" smooth="yes"/>
			<point x="99" y="498"/>
			<point x="-9" y="366"/>
			<point x="-9" y="173" type="curve" smooth="yes"/>
			<point x="-9" y="57"/>
			<point x="39" y="-12"/>
		</contour>
		<contour>
			<point x="62" y="176" type="curve" smooth="yes"/>
			<point x="62" y="298"/>
			<point x="125" y="435"/>
			<point x="213" y="435" type="curve" smooth="yes"/>
			<point x="260" y="435"/>
			<point x="284" y="386"/>
			<point x="284" y="307" type="curve" smooth="yes"/>
			<point x="284" y="174"/>
			<point x="219" y="51"/>
			<point x="138" y="51" type="curve" smooth="yes"/>
			<point x="87" y="51"/>
			<point x="62" y="101"/>
		</contour>
		<component base="space"/>
		<contour>
			<point name="aboveLC" x="340" y="507" type="move"/>
		</contour>
		<contour>
			<point name="baseLC" x="409" y="0" type="move"/>
		</contour>
		<contour>
			<point name="belowLC" x="270" y="-20" type="move"/>
		</contour>
	</outline>
</glyph>
<glyph name="ubar" format="1">
	<advance width="600"/>
	<outline>
		<contour>
			<point x="197" y="-12" type="curve" smooth="yes"/>
			<point x="256" y="-12"/>
			<point x="311" y="27"/>
			<point x="364" y="74" type="curve"/>
			<point x="368" y="74" type="line"/>
			<point x="361" y="0" type="line"/>
			<point x="424" y="0" type="line"/>
			<point x="521" y="486" type="line"/>
			<point x="444" y="486" type="line"/>
			<point x="376" y="142" type="line"/>
			<point x="316" y="81"/>
			<point x="269" y="54"/>
			<point x="232" y="54" type="curve" smooth="yes"/>
			<point x="182" y="54"/>
			<point x="159" y="80"/>
			<point x="159" y="129" type="curve" smooth="yes"/>
			<point x="159" y="146"/>
			<point x="162" y="160"/>
			<point x="167" y="186" type="curve" smooth="yes"/>
			<point x="228" y="486" type="line"/>
			<point x="151" y="486" type="line"/>
			<point x="89" y="176" type="line" smooth="yes"/>
			<point x="84" y="150"/>
			<point x="81" y="132"/>
			<point x="81" y="109" type="curve" smooth="yes"/>
			<point x="81" y="35"/>
			<point x="115" y="-12"/>
		</contour>
		<contour>
			<point x="18" y="254" type="line"/>
			<point x="562" y="254" type="line"/>
			<point x="572" y="314" type="line"/>
			<point x="118" y="314" type="line"/>
			<point x="26" y="308" type="line"/>
		</contour>
		<contour>
			<point name="aboveLC" x="337" y="507" type="move"/>
		</contour>
		<contour>
			<point name="baseLC" x="393" y="0" type="move"/>
		</contour>
		<contour>
			<point name="belowLC" x="249" y="-20" type="move"/>
		</contour>
	</outline>
</glyph>
